<?xml version="1.0" encoding="UTF-8" standalone="no"?><!DOCTYPE svg PUBLIC "-//W3C//DTD SVG 1.1//EN" "http://www.w3.org/Graphics/SVG/1.1/DTD/svg11.dtd"><svg width="100%" height="100%" viewBox="0 0 48 48" version="1.1" xmlns="http://www.w3.org/2000/svg" xmlns:xlink="http://www.w3.org/1999/xlink" xml:space="preserve" xmlns:serif="http://www.serif.com/" style="fill-rule:evenodd;clip-rule:evenodd;stroke-linejoin:round;stroke-miterlimit:2;"><g><path d="M48,12c0,-6.623 -5.377,-12 -12,-12l-24,-0c-6.623,-0 -12,5.377 -12,12l0,24c0,6.623 5.377,12 12,12l24,-0c6.623,-0 12,-5.377 12,-12l0,-24Z" style="fill:#3fb75c;"/></g><path d="M33.416,27.765c-0.929,0 -1.683,-0.742 -1.683,-1.658c0,-0.916 0.754,-1.659 1.683,-1.659c0.93,0 1.683,0.743 1.683,1.659c0,0.916 -0.753,1.658 -1.683,1.658Zm-19.787,-6.544l2.365,-5.02l16.012,-0l1.911,5.02l-20.288,-0Zm17.012,4.482l-13.282,0l-0,-0.538l13.282,0l0,0.538Zm0,1.614l-13.282,-0l-0,-0.538l13.282,0l0,0.538Zm-16.33,0.448c-0.93,0 -1.683,-0.742 -1.683,-1.658c-0,-0.916 0.753,-1.659 1.683,-1.659c0.929,0 1.683,0.743 1.683,1.659c-0,0.916 -0.754,1.658 -1.683,1.658Zm21.016,-6.365l-0.218,0l-1.854,-4.863c-0.297,-0.87 -1.133,-1.502 -2.113,-1.502l-14.739,0c-1.097,0 -2.015,0.792 -2.196,1.824l-1.832,4.562c-1.086,0.144 -1.931,1.067 -1.931,2.176l0,3.944c0,1.039 0.742,1.914 1.729,2.14l-0,2.208c-0,0.592 0.491,1.076 1.092,1.076l1.728,-0c0.601,-0 1.092,-0.484 1.092,-1.076l-0,-2.152l15.557,0l0,2.152c0,0.592 0.491,1.076 1.092,1.076l1.728,-0c0.601,-0 1.092,-0.484 1.092,-1.076l0,-2.163c1.12,-0.113 2.002,-1.053 2.002,-2.185l-0,-3.944c-0,-1.208 -1.003,-2.197 -2.229,-2.197Z" style="fill:#fff;fill-rule:nonzero;"/></svg>